<?xml version="1.0" encoding="UTF-8" standalone="no"?>
<svg
   xmlns:dc="http://purl.org/dc/elements/1.1/"
   xmlns:cc="http://creativecommons.org/ns#"
   xmlns:rdf="http://www.w3.org/1999/02/22-rdf-syntax-ns#"
   xmlns:svg="http://www.w3.org/2000/svg"
   xmlns="http://www.w3.org/2000/svg"
   viewBox="0 0 575 262.5"
   height="262.5"
   width="575"
   xml:space="preserve"
   version="1.1"
   id="svg2"><metadata
     id="metadata8"><rdf:RDF><cc:Work
         rdf:about=""><dc:format>image/svg+xml</dc:format><dc:type
           rdf:resource="http://purl.org/dc/dcmitype/StillImage" /></cc:Work></rdf:RDF></metadata><defs
     id="defs6" /><g
     transform="matrix(1.25,0,0,-1.25,0,262.5)"
     id="g10"><g
       transform="scale(0.1,0.1)"
       id="g12"><path
         id="path14"
         style="fill:#969696;fill-opacity:1;fill-rule:nonzero;stroke:none"
         d="m 280.004,319.996 4100,0 0,1400 -4100,0 0,-1400 z" /><path
         id="path16"
         style="fill:#969696;fill-opacity:1;fill-rule:nonzero;stroke:none"
         d="m 2580,459.996 1700,0 0,280 -1700,0 0,-280 z" /><path
         id="path18"
         style="fill:#ffffff;fill-opacity:1;fill-rule:nonzero;stroke:none"
         d="m 250,350 4100,0 0,1400 -4100,0 0,-1400 z" /><path
         id="path20"
         style="fill:none;stroke:#000000;stroke-width:10;stroke-linecap:round;stroke-linejoin:miter;stroke-miterlimit:10;stroke-dasharray:none;stroke-opacity:1"
         d="m 250,350 4100,0 0,1400 -4100,0 0,-1400 z" /><path
         id="path22"
         style="fill:#ffffff;fill-opacity:1;fill-rule:nonzero;stroke:none"
         d="m 2550,490 1700,0 0,280 -1700,0 0,-280 z" /><path
         id="path24"
         style="fill:none;stroke:#000000;stroke-width:10;stroke-linecap:round;stroke-linejoin:miter;stroke-miterlimit:10;stroke-dasharray:none;stroke-opacity:1"
         d="m 2550,490 1700,0 0,280 -1700,0 0,-280 z" /><path
         id="path26"
         style="fill:#000000;fill-opacity:1;fill-rule:nonzero;stroke:none"
         d="m 2700,980 50,-140 50,140" /><path
         id="path28"
         style="fill:none;stroke:#000000;stroke-width:10;stroke-linecap:round;stroke-linejoin:miter;stroke-miterlimit:10;stroke-dasharray:none;stroke-opacity:1"
         d="m 1150,1470 1600,0 0,-560" /><g
         transform="scale(10,10)"
         id="g30"><text
           id="text32"
           style="font-variant:normal;font-weight:normal;font-size:20px;font-family:'Times New Roman';-inkscape-font-specification:Times-Roman;writing-mode:lr-tb;fill:#000000;fill-opacity:1;fill-rule:nonzero;stroke:none"
           transform="matrix(1,0,0,-1,43,142)"><tspan
             id="tspan34"
             y="0"
             x="0 10 18.879999 25.540001 34.419998 44.419998">parent</tspan><tspan
             id="tspan36"
             y="84"
             x="234 242.88 252.88 258.44 264">child</tspan><tspan
             id="tspan38"
             y="14"
             x="247 252.56 262.56 271.44 280.32001">local</tspan><tspan
             id="tspan40"
             y="28"
             x="247 255.88 265.88 281.44 297 307 317 322.56 331.44 340.32001 345.88 351.44 361.44">communication</tspan></text>
</g></g></g></svg>