<?xml version="1.0" encoding="UTF-8" standalone="no"?>
<svg
   xmlns:dc="http://purl.org/dc/elements/1.1/"
   xmlns:cc="http://creativecommons.org/ns#"
   xmlns:rdf="http://www.w3.org/1999/02/22-rdf-syntax-ns#"
   xmlns:svg="http://www.w3.org/2000/svg"
   xmlns="http://www.w3.org/2000/svg"
   viewBox="0 0 950 472.5"
   height="472.5"
   width="950"
   xml:space="preserve"
   version="1.1"
   id="svg2"><metadata
     id="metadata8"><rdf:RDF><cc:Work
         rdf:about=""><dc:format>image/svg+xml</dc:format><dc:type
           rdf:resource="http://purl.org/dc/dcmitype/StillImage" /></cc:Work></rdf:RDF></metadata><defs
     id="defs6" /><g
     transform="matrix(1.25,0,0,-1.25,0,472.5)"
     id="g10"><g
       transform="scale(0.1,0.1)"
       id="g12"><path
         id="path14"
         style="fill:#969696;fill-opacity:1;fill-rule:nonzero;stroke:none"
         d="m 480.004,2280 1300,0 0,280 -1300,0 0,-280 z" /><path
         id="path16"
         style="fill:#969696;fill-opacity:1;fill-rule:nonzero;stroke:none"
         d="m 280.004,2000 3400,0 0,1400 -3400,0 0,-1400 z" /><path
         id="path18"
         style="fill:#969696;fill-opacity:1;fill-rule:nonzero;stroke:none"
         d="m 480.004,2840 1300,0 0,280 -1300,0 0,-280 z" /><path
         id="path20"
         style="fill:#969696;fill-opacity:1;fill-rule:nonzero;stroke:none"
         d="m 280.004,319.996 3400,0 0,1400 -3400,0 0,-1400 z" /><path
         id="path22"
         style="fill:#969696;fill-opacity:1;fill-rule:nonzero;stroke:none"
         d="m 480.004,1160 1300,0 0,280 -1300,0 0,-280 z" /><path
         id="path24"
         style="fill:#969696;fill-opacity:1;fill-rule:nonzero;stroke:none"
         d="m 1980,599.996 1400,0 0,280 -1400,0 0,-280 z" /><path
         id="path26"
         style="fill:#969696;fill-opacity:1;fill-rule:nonzero;stroke:none"
         d="m 1980,1160 1400,0 0,280 -1400,0 0,-280 z" /><path
         id="path28"
         style="fill:#969696;fill-opacity:1;fill-rule:nonzero;stroke:none"
         d="m 480.004,599.996 1300,0 0,280 -1300,0 0,-280 z" /><path
         id="path30"
         style="fill:#969696;fill-opacity:1;fill-rule:nonzero;stroke:none"
         d="m 1980,2280 1400,0 0,280 -1400,0 0,-280 z" /><path
         id="path32"
         style="fill:#969696;fill-opacity:1;fill-rule:nonzero;stroke:none"
         d="m 1980,2840 1400,0 0,280 -1400,0 0,-280 z" /><path
         id="path34"
         style="fill:#969696;fill-opacity:1;fill-rule:nonzero;stroke:none"
         d="m 3980,2000 3400,0 0,1400 -3400,0 0,-1400 z" /><path
         id="path36"
         style="fill:#969696;fill-opacity:1;fill-rule:nonzero;stroke:none"
         d="m 4180,2280 1300,0 0,280 -1300,0 0,-280 z" /><path
         id="path38"
         style="fill:#969696;fill-opacity:1;fill-rule:nonzero;stroke:none"
         d="m 4180,2840 1300,0 0,280 -1300,0 0,-280 z" /><path
         id="path40"
         style="fill:#969696;fill-opacity:1;fill-rule:nonzero;stroke:none"
         d="m 5680,2840 1400,0 0,280 -1400,0 0,-280 z" /><path
         id="path42"
         style="fill:#969696;fill-opacity:1;fill-rule:nonzero;stroke:none"
         d="m 5680,2280 1400,0 0,280 -1400,0 0,-280 z" /><path
         id="path44"
         style="fill:#ffffff;fill-opacity:1;fill-rule:nonzero;stroke:none"
         d="m 450,2310 1300,0 0,280 -1300,0 0,-280 z" /><path
         id="path46"
         style="fill:none;stroke:#000000;stroke-width:10;stroke-linecap:round;stroke-linejoin:miter;stroke-miterlimit:10;stroke-dasharray:none;stroke-opacity:1"
         d="m 450,2310 1300,0 0,280 -1300,0 0,-280 z" /><path
         id="path48"
         style="fill:#ffffff;fill-opacity:1;fill-rule:nonzero;stroke:none"
         d="m 250,2030 3400,0 0,1400 -3400,0 0,-1400 z" /><path
         id="path50"
         style="fill:none;stroke:#000000;stroke-width:10;stroke-linecap:round;stroke-linejoin:miter;stroke-miterlimit:10;stroke-dasharray:none;stroke-opacity:1"
         d="m 250,2030 3400,0 0,1400 -3400,0 0,-1400 z" /><path
         id="path52"
         style="fill:#ffffff;fill-opacity:1;fill-rule:nonzero;stroke:none"
         d="m 450,2870 1300,0 0,280 -1300,0 0,-280 z" /><path
         id="path54"
         style="fill:none;stroke:#000000;stroke-width:10;stroke-linecap:round;stroke-linejoin:miter;stroke-miterlimit:10;stroke-dasharray:none;stroke-opacity:1"
         d="m 450,2870 1300,0 0,280 -1300,0 0,-280 z" /><path
         id="path56"
         style="fill:#ffffff;fill-opacity:1;fill-rule:nonzero;stroke:none"
         d="m 250,350 3400,0 0,1400 -3400,0 0,-1400 z" /><path
         id="path58"
         style="fill:none;stroke:#000000;stroke-width:10;stroke-linecap:round;stroke-linejoin:miter;stroke-miterlimit:10;stroke-dasharray:none;stroke-opacity:1"
         d="m 250,350 3400,0 0,1400 -3400,0 0,-1400 z" /><path
         id="path60"
         style="fill:#ffffff;fill-opacity:1;fill-rule:nonzero;stroke:none"
         d="m 450,1190 1300,0 0,280 -1300,0 0,-280 z" /><path
         id="path62"
         style="fill:none;stroke:#000000;stroke-width:10;stroke-linecap:round;stroke-linejoin:miter;stroke-miterlimit:10;stroke-dasharray:none;stroke-opacity:1"
         d="m 450,1190 1300,0 0,280 -1300,0 0,-280 z" /><path
         id="path64"
         style="fill:#ffffff;fill-opacity:1;fill-rule:nonzero;stroke:none"
         d="m 1950,630 1400,0 0,280 -1400,0 0,-280 z" /><path
         id="path66"
         style="fill:none;stroke:#000000;stroke-width:10;stroke-linecap:round;stroke-linejoin:miter;stroke-miterlimit:10;stroke-dasharray:none;stroke-opacity:1"
         d="m 1950,630 1400,0 0,280 -1400,0 0,-280 z" /><path
         id="path68"
         style="fill:#ffffff;fill-opacity:1;fill-rule:nonzero;stroke:none"
         d="m 1950,1190 1400,0 0,280 -1400,0 0,-280 z" /><path
         id="path70"
         style="fill:none;stroke:#000000;stroke-width:10;stroke-linecap:round;stroke-linejoin:miter;stroke-miterlimit:10;stroke-dasharray:none;stroke-opacity:1"
         d="m 1950,1190 1400,0 0,280 -1400,0 0,-280 z" /><path
         id="path72"
         style="fill:#ffffff;fill-opacity:1;fill-rule:nonzero;stroke:none"
         d="m 450,630 1300,0 0,280 -1300,0 0,-280 z" /><path
         id="path74"
         style="fill:none;stroke:#000000;stroke-width:10;stroke-linecap:round;stroke-linejoin:miter;stroke-miterlimit:10;stroke-dasharray:none;stroke-opacity:1"
         d="m 450,630 1300,0 0,280 -1300,0 0,-280 z" /><path
         id="path76"
         style="fill:#ffffff;fill-opacity:1;fill-rule:nonzero;stroke:none"
         d="m 1950,2310 1400,0 0,280 -1400,0 0,-280 z" /><path
         id="path78"
         style="fill:none;stroke:#000000;stroke-width:10;stroke-linecap:round;stroke-linejoin:miter;stroke-miterlimit:10;stroke-dasharray:none;stroke-opacity:1"
         d="m 1950,2310 1400,0 0,280 -1400,0 0,-280 z" /><path
         id="path80"
         style="fill:#ffffff;fill-opacity:1;fill-rule:nonzero;stroke:none"
         d="m 1950,2870 1400,0 0,280 -1400,0 0,-280 z" /><path
         id="path82"
         style="fill:none;stroke:#000000;stroke-width:10;stroke-linecap:round;stroke-linejoin:miter;stroke-miterlimit:10;stroke-dasharray:none;stroke-opacity:1"
         d="m 1950,2870 1400,0 0,280 -1400,0 0,-280 z" /><path
         id="path84"
         style="fill:#ffffff;fill-opacity:1;fill-rule:nonzero;stroke:none"
         d="m 3950,2030 3400,0 0,1400 -3400,0 0,-1400 z" /><path
         id="path86"
         style="fill:none;stroke:#000000;stroke-width:10;stroke-linecap:round;stroke-linejoin:miter;stroke-miterlimit:10;stroke-dasharray:none;stroke-opacity:1"
         d="m 3950,2030 3400,0 0,1400 -3400,0 0,-1400 z" /><path
         id="path88"
         style="fill:#ffffff;fill-opacity:1;fill-rule:nonzero;stroke:none"
         d="m 4150,2310 1300,0 0,280 -1300,0 0,-280 z" /><path
         id="path90"
         style="fill:none;stroke:#000000;stroke-width:10;stroke-linecap:round;stroke-linejoin:miter;stroke-miterlimit:10;stroke-dasharray:none;stroke-opacity:1"
         d="m 4150,2310 1300,0 0,280 -1300,0 0,-280 z" /><path
         id="path92"
         style="fill:#ffffff;fill-opacity:1;fill-rule:nonzero;stroke:none"
         d="m 4150,2870 1300,0 0,280 -1300,0 0,-280 z" /><path
         id="path94"
         style="fill:none;stroke:#000000;stroke-width:10;stroke-linecap:round;stroke-linejoin:miter;stroke-miterlimit:10;stroke-dasharray:none;stroke-opacity:1"
         d="m 4150,2870 1300,0 0,280 -1300,0 0,-280 z" /><path
         id="path96"
         style="fill:#ffffff;fill-opacity:1;fill-rule:nonzero;stroke:none"
         d="m 5650,2870 1400,0 0,280 -1400,0 0,-280 z" /><path
         id="path98"
         style="fill:none;stroke:#000000;stroke-width:10;stroke-linecap:round;stroke-linejoin:miter;stroke-miterlimit:10;stroke-dasharray:none;stroke-opacity:1"
         d="m 5650,2870 1400,0 0,280 -1400,0 0,-280 z" /><path
         id="path100"
         style="fill:#ffffff;fill-opacity:1;fill-rule:nonzero;stroke:none"
         d="m 5650,2310 1400,0 0,280 -1400,0 0,-280 z" /><path
         id="path102"
         style="fill:none;stroke:#000000;stroke-width:10;stroke-linecap:round;stroke-linejoin:miter;stroke-miterlimit:10;stroke-dasharray:none;stroke-opacity:1"
         d="m 5650,2310 1400,0 0,280 -1400,0 0,-280 z" /><g
         transform="scale(10,10)"
         id="g104"><text
           id="text106"
           style="font-variant:normal;font-weight:normal;font-size:20px;font-family:'Times New Roman';-inkscape-font-specification:Times-Roman;writing-mode:lr-tb;fill:#000000;fill-opacity:1;fill-rule:nonzero;stroke:none"
           transform="matrix(1,0,0,-1,65,240)"><tspan
             id="tspan108"
             y="0"
             x="0 15.56 24.440001 30 40 45 55">main.ol</tspan><tspan
             id="tspan110"
             y="168"
             x="152 157.56 167.56 176.44 182 192 202">include</tspan><tspan
             id="tspan112"
             y="-56"
             x="1 6.5599999 12.12">lib</tspan><tspan
             id="tspan114"
             y="112"
             x="146 154.88 164.88">ext</tspan><tspan
             id="tspan116"
             y="196"
             x="215 232.78 242.78 252.78 257.78">Mod C</tspan><tspan
             id="tspan118"
             y="-56"
             x="146 154.88 164.88">ext</tspan><tspan
             id="tspan120"
             y="0"
             x="152 157.56 167.56 176.44 182 192 202">include</tspan><tspan
             id="tspan122"
             y="168"
             x="0 15.56 24.440001 30 40 45 55">main.ol</tspan><tspan
             id="tspan124"
             y="28"
             x="215 232.78 242.78 252.78 257.78">Mod A</tspan><tspan
             id="tspan126"
             y="112"
             x="1 6.5599999 12.12">lib</tspan><tspan
             id="tspan128"
             y="0"
             x="370 385.56 394.44 400 410 415 425">main.ol</tspan><tspan
             id="tspan130"
             y="-56"
             x="371 376.56 382.12">lib</tspan><tspan
             id="tspan132"
             y="0"
             x="522 527.56 537.56 546.44 552 562 572">include</tspan><tspan
             id="tspan134"
             y="-56"
             x="516 524.88 534.88">ext</tspan><tspan
             id="tspan136"
             y="28"
             x="585 602.78003 612.78003 622.78003 627.78003">Mod B</tspan></text>
</g></g></g></svg>