<?xml version="1.0" encoding="UTF-8" standalone="no"?>
<svg
   xmlns:dc="http://purl.org/dc/elements/1.1/"
   xmlns:cc="http://creativecommons.org/ns#"
   xmlns:rdf="http://www.w3.org/1999/02/22-rdf-syntax-ns#"
   xmlns:svg="http://www.w3.org/2000/svg"
   xmlns="http://www.w3.org/2000/svg"
   viewBox="0 0 775 350"
   height="350"
   width="775"
   xml:space="preserve"
   version="1.1"
   id="svg2"><metadata
     id="metadata8"><rdf:RDF><cc:Work
         rdf:about=""><dc:format>image/svg+xml</dc:format><dc:type
           rdf:resource="http://purl.org/dc/dcmitype/StillImage" /></cc:Work></rdf:RDF></metadata><defs
     id="defs6" /><g
     transform="matrix(1.25,0,0,-1.25,0,350)"
     id="g10"><g
       transform="scale(0.1,0.1)"
       id="g12"><path
         id="path14"
         style="fill:#969696;fill-opacity:1;fill-rule:nonzero;stroke:none"
         d="m 280.004,319.996 5700,0 0,2100 -5700,0 0,-2100 z" /><path
         id="path16"
         style="fill:#969696;fill-opacity:1;fill-rule:nonzero;stroke:none"
         d="m 480.004,1300 1300,0 0,840 -1300,0 0,-840 z" /><path
         id="path18"
         style="fill:#969696;fill-opacity:1;fill-rule:nonzero;stroke:none"
         d="m 480.004,739.996 1300,0 0,280 -1300,0 0,-280 z" /><path
         id="path20"
         style="fill:#969696;fill-opacity:1;fill-rule:nonzero;stroke:none"
         d="m 1980,739.996 1400,0 0,280 -1400,0 0,-280 z" /><path
         id="path22"
         style="fill:#969696;fill-opacity:1;fill-rule:nonzero;stroke:none"
         d="m 1980,1300 1400,0 0,840 -1400,0 0,-840 z" /><path
         id="path24"
         style="fill:#969696;fill-opacity:1;fill-rule:nonzero;stroke:none"
         d="m 3580,739.996 1300,0 0,280 -1300,0 0,-280 z" /><path
         id="path26"
         style="fill:#969696;fill-opacity:1;fill-rule:nonzero;stroke:none"
         d="m 3580,1300 1300,0 0,840 -1300,0 0,-840 z" /><path
         id="path28"
         style="fill:#ffffff;fill-opacity:1;fill-rule:nonzero;stroke:none"
         d="m 250,350 5700,0 0,2100 -5700,0 0,-2100 z" /><path
         id="path30"
         style="fill:none;stroke:#000000;stroke-width:10;stroke-linecap:round;stroke-linejoin:miter;stroke-miterlimit:10;stroke-dasharray:none;stroke-opacity:1"
         d="m 250,350 5700,0 0,2100 -5700,0 0,-2100 z" /><path
         id="path32"
         style="fill:#ffffff;fill-opacity:1;fill-rule:nonzero;stroke:none"
         d="m 450,1330 1300,0 0,840 -1300,0 0,-840 z" /><path
         id="path34"
         style="fill:none;stroke:#000000;stroke-width:10;stroke-linecap:round;stroke-linejoin:miter;stroke-miterlimit:10;stroke-dasharray:none;stroke-opacity:1"
         d="m 450,1330 1300,0 0,840 -1300,0 0,-840 z" /><path
         id="path36"
         style="fill:#ffffff;fill-opacity:1;fill-rule:nonzero;stroke:none"
         d="m 450,770 1300,0 0,280 -1300,0 0,-280 z" /><path
         id="path38"
         style="fill:none;stroke:#000000;stroke-width:10;stroke-linecap:round;stroke-linejoin:miter;stroke-miterlimit:10;stroke-dasharray:none;stroke-opacity:1"
         d="m 450,770 1300,0 0,280 -1300,0 0,-280 z" /><path
         id="path40"
         style="fill:#ffffff;fill-opacity:1;fill-rule:nonzero;stroke:none"
         d="m 1950,770 1400,0 0,280 -1400,0 0,-280 z" /><path
         id="path42"
         style="fill:none;stroke:#000000;stroke-width:10;stroke-linecap:round;stroke-linejoin:miter;stroke-miterlimit:10;stroke-dasharray:none;stroke-opacity:1"
         d="m 1950,770 1400,0 0,280 -1400,0 0,-280 z" /><path
         id="path44"
         style="fill:#ffffff;fill-opacity:1;fill-rule:nonzero;stroke:none"
         d="m 1950,1330 1400,0 0,840 -1400,0 0,-840 z" /><path
         id="path46"
         style="fill:none;stroke:#000000;stroke-width:10;stroke-linecap:round;stroke-linejoin:miter;stroke-miterlimit:10;stroke-dasharray:none;stroke-opacity:1"
         d="m 1950,1330 1400,0 0,840 -1400,0 0,-840 z" /><path
         id="path48"
         style="fill:#ffffff;fill-opacity:1;fill-rule:nonzero;stroke:none"
         d="m 3550,770 1300,0 0,280 -1300,0 0,-280 z" /><path
         id="path50"
         style="fill:none;stroke:#000000;stroke-width:10;stroke-linecap:round;stroke-linejoin:miter;stroke-miterlimit:10;stroke-dasharray:none;stroke-opacity:1"
         d="m 3550,770 1300,0 0,280 -1300,0 0,-280 z" /><path
         id="path52"
         style="fill:#ffffff;fill-opacity:1;fill-rule:nonzero;stroke:none"
         d="m 3550,1330 1300,0 0,840 -1300,0 0,-840 z" /><path
         id="path54"
         style="fill:none;stroke:#000000;stroke-width:10;stroke-linecap:round;stroke-linejoin:miter;stroke-miterlimit:10;stroke-dasharray:none;stroke-opacity:1"
         d="m 3550,1330 1300,0 0,840 -1300,0 0,-840 z" /><g
         transform="scale(10,10)"
         id="g56"><text
           id="text58"
           style="font-variant:normal;font-weight:normal;font-size:20px;font-family:'Times New Roman';-inkscape-font-specification:Times-Roman;writing-mode:lr-tb;fill:#000000;fill-opacity:1;fill-rule:nonzero;stroke:none"
           transform="matrix(1,0,0,-1,59,198)"><tspan
             id="tspan60"
             y="0"
             x="0 8.8800001 15.54 21.1 35.540001 40.540001 46.099998 54.98">artA.jar</tspan><tspan
             id="tspan62"
             y="14"
             x="0 8.8800001 15.54 21.1 34.439999 39.439999 45 53.880001">artB.jar</tspan><tspan
             id="tspan64"
             y="112"
             x="6 21.559999 30.440001 36 46 60.439999 65.440002 75.440002">mainA.ol</tspan><tspan
             id="tspan66"
             y="56"
             x="7 12.56 18.120001">lib</tspan><tspan
             id="tspan68"
             y="112"
             x="156 171.56 180.44 186 196 209.34 214.34 224.34">mainB.ol</tspan><tspan
             id="tspan70"
             y="56"
             x="152 160.88 170.88">ext</tspan><tspan
             id="tspan72"
             y="0"
             x="319 327.88 332.88 338.44 348.44">a.iol</tspan><tspan
             id="tspan74"
             y="14"
             x="319 329 334 339.56 349.56">b.iol</tspan><tspan
             id="tspan76"
             y="28"
             x="320 328.88 333.88 339.44 349.44">c.iol</tspan><tspan
             id="tspan78"
             y="56"
             x="318 323.56 333.56 342.44 348 358 368">include</tspan><tspan
             id="tspan80"
             y="154"
             x="285 292.78 302.78 308.34 313.89999 322.78 327.78 337.78 344.44 354.44 364.44 371.10001 379.98001 395.54001 400.54001 414.98001 420.54001 429.42001 444.98001 454.98001 463.85999 473.85999 483.85999 489.42001 499.42001">Jolie program w/embedding</tspan><tspan
             id="tspan82"
             y="112"
             x="316 331.56 340.44 346 356 369.34 374.34 384.34">mainC.ol</tspan></text>
</g></g></g></svg>