<?xml version="1.0" encoding="UTF-8" standalone="no"?>
<svg
   xmlns:dc="http://purl.org/dc/elements/1.1/"
   xmlns:cc="http://creativecommons.org/ns#"
   xmlns:rdf="http://www.w3.org/1999/02/22-rdf-syntax-ns#"
   xmlns:svg="http://www.w3.org/2000/svg"
   xmlns="http://www.w3.org/2000/svg"
   viewBox="0 0 529.1333 141.64"
   height="141.64"
   width="529.1333"
   xml:space="preserve"
   id="svg2"
   version="1.1"><metadata
     id="metadata8"><rdf:RDF><cc:Work
         rdf:about=""><dc:format>image/svg+xml</dc:format><dc:type
           rdf:resource="http://purl.org/dc/dcmitype/StillImage" /></cc:Work></rdf:RDF></metadata><defs
     id="defs6" /><g
     transform="matrix(1.3333333,0,0,-1.3333333,0,141.64)"
     id="g10"><g
       transform="scale(0.1)"
       id="g12"><path
         id="path14"
         style="fill:#231f20;fill-opacity:1;fill-rule:nonzero;stroke:none"
         d="M 0,136.449 C 93.4375,50.7109 206.445,0 328.496,0 492.129,0 636.34,111.723 636.34,272.738 c 0,306.446 -419.543,261.133 -419.543,407.891 0,70.039 74.101,98.644 140.293,98.644 59.765,0 120.762,-25.937 157.148,-59.777 l 90.965,129.922 c -85.691,63.594 -171.453,85.703 -263.719,85.703 -150.605,0 -299.941,-93.476 -299.941,-255.848 0,-290.011 419.453,-228.515 419.453,-409.164 0,-66.121 -54.551,-114.168 -132.5,-114.168 -83.047,0 -162.266,42.852 -214.258,99.922 z m 1389.48,331.094 c 0,109.816 -62.89,298.75 -298.69,298.75 H 960.93 v -597.5 h 129.86 c 235.8,0 298.69,188.926 298.69,298.75 z m 175.35,0 c 0,-34.512 -4.16,-454.6133 -493.54,-454.6133 H 785.621 V 922.148 h 285.669 c 489.38,0 493.54,-420.101 493.54,-454.605 z m 921.91,454.605 h -175.33 l 0.03,-538.96 c -0.01,-223.77 -189.75,-227.247 -214.25,-227.247 -24.5,0 -214.25,3.477 -214.25,227.266 l -0.05,538.941 h -175.34 l 0.04,-526.011 c 0,-281.836 185.17,-396.1252812 389.59,-396.1252812 204.41,0 389.61,114.2892812 389.61,396.1252812 z M 3578.43,1062.26 C 3214.66,982.996 3074.8,791.254 3074.8,649.32 c 380.02,45.934 333.58,284.258 503.63,412.94 z m 390.08,-643.526 c -77.28,-18.679 -226.8,-41.777 -326.38,-41.777 -205.65,0 -251.5,117.336 -261.72,168.023 -80.27,18.188 -212.55,8.594 -276.22,-5.933 62.75,-13.77 99.91,-62.324 111.12,-151.895 7.49,2.637 38.91,12.95 71.46,12.95 69.76,0 128.88,-80.481 128.88,-169.629 0,-131.9222 -74.04,-229.742531 -145.66,-229.742531 -48.81,0 -64.02,23.781231 -80.51,23.781231 -16.46,0 -29.78,-24.4999812 -76.64,-24.4999812 -72.92,0 -153.23,108.0512812 -153.23,230.9492812 0,56.699 30.39,169.988 150.75,169.988 30.74,0 46.32,-8.035 50.03,-10.261 -2.05,62.089 -46.58,117.832 -126.88,117.832 -68.26,0 -234,-65.809 -353.85,-167.286 L 2644.05,391 c 112.87,84.551 355.07,205.715 635.77,205.715 38.81,0 74.07,-2.863 103.64,-7.754 13.57,36.184 56.02,106.293 181.17,106.293 196.25,0 341.11,-166.949 403.88,-276.52" /></g></g></svg>