<?xml version="1.0" encoding="UTF-8"?>
<!DOCTYPE svg PUBLIC "-//W3C//DTD SVG 1.1//EN" "http://www.w3.org/Graphics/SVG/1.1/DTD/svg11.dtd">
<svg version="1.2" width="186.67mm" height="49.97mm" viewBox="0 0 18667 4997" preserveAspectRatio="xMidYMid" fill-rule="evenodd" stroke-width="28.222" stroke-linejoin="round" xmlns="http://www.w3.org/2000/svg" xmlns:ooo="http://xml.openoffice.org/svg/export" xmlns:xlink="http://www.w3.org/1999/xlink" xmlns:presentation="http://sun.com/xmlns/staroffice/presentation" xmlns:smil="http://www.w3.org/2001/SMIL20/" xmlns:anim="urn:oasis:names:tc:opendocument:xmlns:animation:1.0" xml:space="preserve">
 <defs class="ClipPathGroup">
  <clipPath id="presentation_clip_path" clipPathUnits="userSpaceOnUse">
   <rect x="0" y="0" width="18667" height="4997"/>
  </clipPath>
 </defs>
 <defs class="TextShapeIndex">
  <g ooo:slide="id1" ooo:id-list="id3"/>
 </defs>
 <defs class="EmbeddedBulletChars">
  <g id="bullet-char-template(57356)" transform="scale(0.00048828125,-0.00048828125)">
   <path d="M 580,1141 L 1163,571 580,0 -4,571 580,1141 Z"/>
  </g>
  <g id="bullet-char-template(57354)" transform="scale(0.00048828125,-0.00048828125)">
   <path d="M 8,1128 L 1137,1128 1137,0 8,0 8,1128 Z"/>
  </g>
  <g id="bullet-char-template(10146)" transform="scale(0.00048828125,-0.00048828125)">
   <path d="M 174,0 L 602,739 174,1481 1456,739 174,0 Z M 1358,739 L 309,1346 659,739 1358,739 Z"/>
  </g>
  <g id="bullet-char-template(10132)" transform="scale(0.00048828125,-0.00048828125)">
   <path d="M 2015,739 L 1276,0 717,0 1260,543 174,543 174,936 1260,936 717,1481 1274,1481 2015,739 Z"/>
  </g>
  <g id="bullet-char-template(10007)" transform="scale(0.00048828125,-0.00048828125)">
   <path d="M 0,-2 C -7,14 -16,27 -25,37 L 356,567 C 262,823 215,952 215,954 215,979 228,992 255,992 264,992 276,990 289,987 310,991 331,999 354,1012 L 381,999 492,748 772,1049 836,1024 860,1049 C 881,1039 901,1025 922,1006 886,937 835,863 770,784 769,783 710,716 594,584 L 774,223 C 774,196 753,168 711,139 L 727,119 C 717,90 699,76 672,76 641,76 570,178 457,381 L 164,-76 C 142,-110 111,-127 72,-127 30,-127 9,-110 8,-76 1,-67 -2,-52 -2,-32 -2,-23 -1,-13 0,-2 Z"/>
  </g>
  <g id="bullet-char-template(10004)" transform="scale(0.00048828125,-0.00048828125)">
   <path d="M 285,-33 C 182,-33 111,30 74,156 52,228 41,333 41,471 41,549 55,616 82,672 116,743 169,778 240,778 293,778 328,747 346,684 L 369,508 C 377,444 397,411 428,410 L 1163,1116 C 1174,1127 1196,1133 1229,1133 1271,1133 1292,1118 1292,1087 L 1292,965 C 1292,929 1282,901 1262,881 L 442,47 C 390,-6 338,-33 285,-33 Z"/>
  </g>
  <g id="bullet-char-template(9679)" transform="scale(0.00048828125,-0.00048828125)">
   <path d="M 813,0 C 632,0 489,54 383,161 276,268 223,411 223,592 223,773 276,916 383,1023 489,1130 632,1184 813,1184 992,1184 1136,1130 1245,1023 1353,916 1407,772 1407,592 1407,412 1353,268 1245,161 1136,54 992,0 813,0 Z"/>
  </g>
  <g id="bullet-char-template(8226)" transform="scale(0.00048828125,-0.00048828125)">
   <path d="M 346,457 C 273,457 209,483 155,535 101,586 74,649 74,723 74,796 101,859 155,911 209,963 273,989 346,989 419,989 480,963 531,910 582,859 608,796 608,723 608,648 583,586 532,535 482,483 420,457 346,457 Z"/>
  </g>
  <g id="bullet-char-template(8211)" transform="scale(0.00048828125,-0.00048828125)">
   <path d="M -4,459 L 1135,459 1135,606 -4,606 -4,459 Z"/>
  </g>
 </defs>
 <defs class="TextEmbeddedBitmaps"/>
 <g>
  <g id="id2" class="Master_Slide">
   <g id="bg-id2" class="Background"/>
   <g id="bo-id2" class="BackgroundObjects"/>
  </g>
 </g>
 <g class="SlideGroup">
  <g>
   <g id="id1" class="Slide" clip-path="url(#presentation_clip_path)">
    <g class="Page">
     <g class="com.sun.star.drawing.ClosedBezierShape">
      <g id="id3">
       <rect class="BoundingBox" stroke="none" fill="none" x="-1" y="0" width="18669" height="4999"/>
       <path fill="rgb(238,238,238)" stroke="none" d="M -1,4356 C 439,4759 970,4998 1544,4998 2314,4998 2992,4472 2992,3714 2992,2273 1019,2486 1019,1795 1019,1466 1367,1331 1679,1331 1960,1331 2247,1453 2418,1613 L 2846,1001 C 2443,702 2039,598 1605,598 897,598 194,1038 194,1802 194,3166 2168,2877 2168,3727 2168,4038 1911,4264 1544,4264 1154,4264 781,4062 536,3794 L -1,4356 Z M 6535,2798 C 6535,2281 6239,1392 5130,1392 L 4519,1392 4519,4203 5130,4203 C 6239,4203 6535,3315 6535,2798 Z M 7360,2798 C 7360,2960 7340,4937 5038,4937 L 3695,4937 3695,659 5038,659 C 7340,659 7360,2636 7360,2798 Z M 11697,659 L 10872,659 10872,3195 C 10872,4248 9979,4264 9864,4264 9749,4264 8856,4248 8856,3195 L 8856,659 8031,659 8031,3134 C 8031,4460 8902,4998 9864,4998 10826,4998 11697,4460 11697,3134 L 11697,659 Z M 16832,0 C 15121,373 14463,1275 14463,1943 16250,1727 16032,605 16832,0 Z M 18667,3028 C 18303,3115 17600,3224 17131,3224 16164,3224 15948,2672 15900,2434 15523,2348 14900,2393 14601,2462 14896,2526 15071,2755 15124,3176 15159,3164 15307,3115 15460,3115 15788,3115 16066,3494 16066,3913 16066,4534 15718,4994 15381,4994 15151,4994 15080,4882 15002,4882 14925,4882 14862,4998 14642,4998 14299,4998 13921,4489 13921,3911 13921,3644 14064,3111 14630,3111 14775,3111 14848,3149 14865,3160 14856,2867 14646,2605 14268,2605 13947,2605 13168,2915 12604,3392 L 12436,3158 C 12967,2760 14107,2190 15427,2190 15610,2190 15776,2204 15915,2227 15978,2056 16178,1727 16767,1727 17690,1727 18371,2512 18667,3028 Z"/>
      </g>
     </g>
    </g>
   </g>
  </g>
 </g>
</svg>