<?xml version="1.0" encoding="UTF-8" standalone="no"?>
<svg
   xmlns:dc="http://purl.org/dc/elements/1.1/"
   xmlns:cc="http://creativecommons.org/ns#"
   xmlns:rdf="http://www.w3.org/1999/02/22-rdf-syntax-ns#"
   xmlns:svg="http://www.w3.org/2000/svg"
   xmlns="http://www.w3.org/2000/svg"
   viewBox="0 0 712.5 192.5"
   height="192.5"
   width="712.5"
   xml:space="preserve"
   version="1.1"
   id="svg2"><metadata
     id="metadata8"><rdf:RDF><cc:Work
         rdf:about=""><dc:format>image/svg+xml</dc:format><dc:type
           rdf:resource="http://purl.org/dc/dcmitype/StillImage" /></cc:Work></rdf:RDF></metadata><defs
     id="defs6" /><g
     transform="matrix(1.25,0,0,-1.25,0,192.5)"
     id="g10"><g
       transform="scale(0.1,0.1)"
       id="g12"><path
         id="path14"
         style="fill:#969696;fill-opacity:1;fill-rule:nonzero;stroke:none"
         d="m 280.004,319.996 1400,0 0,840 -1400,0 0,-840 z" /><path
         id="path16"
         style="fill:#969696;fill-opacity:1;fill-rule:nonzero;stroke:none"
         d="m 4080,319.996 1400,0 0,840 -1400,0 0,-840 z" /><path
         id="path18"
         style="fill:#ffffff;fill-opacity:1;fill-rule:nonzero;stroke:none"
         d="m 250,350 1400,0 0,840 -1400,0 0,-840 z" /><path
         id="path20"
         style="fill:none;stroke:#000000;stroke-width:10;stroke-linecap:round;stroke-linejoin:miter;stroke-miterlimit:10;stroke-dasharray:none;stroke-opacity:1"
         d="m 250,350 1400,0 0,840 -1400,0 0,-840 z" /><path
         id="path22"
         style="fill:#ffffff;fill-opacity:1;fill-rule:nonzero;stroke:none"
         d="m 4050,350 1400,0 0,840 -1400,0 0,-840 z" /><path
         id="path24"
         style="fill:none;stroke:#000000;stroke-width:10;stroke-linecap:round;stroke-linejoin:miter;stroke-miterlimit:10;stroke-dasharray:none;stroke-opacity:1"
         d="m 4050,350 1400,0 0,840 -1400,0 0,-840 z" /><path
         id="path26"
         style="fill:#000000;fill-opacity:1;fill-rule:nonzero;stroke:none"
         d="m 1900,560 -100,-70 100,-70" /><path
         id="path28"
         style="fill:none;stroke:#000000;stroke-width:10;stroke-linecap:round;stroke-linejoin:miter;stroke-miterlimit:10;stroke-dasharray:none;stroke-opacity:1"
         d="m 3850,490 -2000,0" /><g
         transform="scale(10,10)"
         id="g30"><text
           id="text32"
           style="font-variant:normal;font-weight:normal;font-size:20px;font-family:'Times New Roman';-inkscape-font-specification:Times-Roman;writing-mode:lr-tb;fill:#000000;fill-opacity:1;fill-rule:nonzero;stroke:none"
           transform="matrix(1,0,0,-1,190,72)"><tspan
             id="tspan34"
             y="0"
             x="0 14.44 26.66 38.880001 50 55.560001 65.559998 70.559998 80.559998 85.559998 95.559998 105.56 115.56 120.56 135">HTTP/1.1 200 OK</tspan><tspan
             id="tspan36"
             y="14"
             x="0 5 10">...</tspan><tspan
             id="tspan38"
             y="0"
             x="282 295.34 -98 -83.559998">B A </tspan></text>
</g></g></g></svg>