<?xml version="1.0" encoding="UTF-8" standalone="no"?>
<svg
   xmlns:dc="http://purl.org/dc/elements/1.1/"
   xmlns:cc="http://creativecommons.org/ns#"
   xmlns:rdf="http://www.w3.org/1999/02/22-rdf-syntax-ns#"
   xmlns:svg="http://www.w3.org/2000/svg"
   xmlns="http://www.w3.org/2000/svg"
   viewBox="0 0 775 280"
   height="280"
   width="775"
   xml:space="preserve"
   version="1.1"
   id="svg2"><metadata
     id="metadata8"><rdf:RDF><cc:Work
         rdf:about=""><dc:format>image/svg+xml</dc:format><dc:type
           rdf:resource="http://purl.org/dc/dcmitype/StillImage" /></cc:Work></rdf:RDF></metadata><defs
     id="defs6" /><g
     transform="matrix(1.25,0,0,-1.25,0,280)"
     id="g10"><g
       transform="scale(0.1,0.1)"
       id="g12"><path
         id="path14"
         style="fill:#969696;fill-opacity:1;fill-rule:nonzero;stroke:none"
         d="m 280.004,319.996 5700,0 0,1540 -5700,0 0,-1540 z" /><path
         id="path16"
         style="fill:#969696;fill-opacity:1;fill-rule:nonzero;stroke:none"
         d="m 480.004,1300 1300,0 0,280 -1300,0 0,-280 z" /><path
         id="path18"
         style="fill:#969696;fill-opacity:1;fill-rule:nonzero;stroke:none"
         d="m 480.004,739.996 1300,0 0,280 -1300,0 0,-280 z" /><path
         id="path20"
         style="fill:#969696;fill-opacity:1;fill-rule:nonzero;stroke:none"
         d="m 1980,1300 1400,0 0,280 -1400,0 0,-280 z" /><path
         id="path22"
         style="fill:#969696;fill-opacity:1;fill-rule:nonzero;stroke:none"
         d="m 3580,1300 1300,0 0,280 -1300,0 0,-280 z" /><path
         id="path24"
         style="fill:#ffffff;fill-opacity:1;fill-rule:nonzero;stroke:none"
         d="m 250,350 5700,0 0,1540 -5700,0 0,-1540 z" /><path
         id="path26"
         style="fill:none;stroke:#000000;stroke-width:10;stroke-linecap:round;stroke-linejoin:miter;stroke-miterlimit:10;stroke-dasharray:none;stroke-opacity:1"
         d="m 250,350 5700,0 0,1540 -5700,0 0,-1540 z" /><path
         id="path28"
         style="fill:#ffffff;fill-opacity:1;fill-rule:nonzero;stroke:none"
         d="m 450,1330 1300,0 0,280 -1300,0 0,-280 z" /><path
         id="path30"
         style="fill:none;stroke:#000000;stroke-width:10;stroke-linecap:round;stroke-linejoin:miter;stroke-miterlimit:10;stroke-dasharray:none;stroke-opacity:1"
         d="m 450,1330 1300,0 0,280 -1300,0 0,-280 z" /><path
         id="path32"
         style="fill:#ffffff;fill-opacity:1;fill-rule:nonzero;stroke:none"
         d="m 450,770 1300,0 0,280 -1300,0 0,-280 z" /><path
         id="path34"
         style="fill:none;stroke:#000000;stroke-width:10;stroke-linecap:round;stroke-linejoin:miter;stroke-miterlimit:10;stroke-dasharray:none;stroke-opacity:1"
         d="m 450,770 1300,0 0,280 -1300,0 0,-280 z" /><path
         id="path36"
         style="fill:#ffffff;fill-opacity:1;fill-rule:nonzero;stroke:none"
         d="m 1950,1330 1400,0 0,280 -1400,0 0,-280 z" /><path
         id="path38"
         style="fill:none;stroke:#000000;stroke-width:10;stroke-linecap:round;stroke-linejoin:miter;stroke-miterlimit:10;stroke-dasharray:none;stroke-opacity:1"
         d="m 1950,1330 1400,0 0,280 -1400,0 0,-280 z" /><path
         id="path40"
         style="fill:#ffffff;fill-opacity:1;fill-rule:nonzero;stroke:none"
         d="m 3550,1330 1300,0 0,280 -1300,0 0,-280 z" /><path
         id="path42"
         style="fill:none;stroke:#000000;stroke-width:10;stroke-linecap:round;stroke-linejoin:miter;stroke-miterlimit:10;stroke-dasharray:none;stroke-opacity:1"
         d="m 3550,1330 1300,0 0,280 -1300,0 0,-280 z" /><g
         transform="scale(10,10)"
         id="g44"><text
           id="text46"
           style="font-variant:normal;font-weight:normal;font-size:20px;font-family:'Times New Roman';-inkscape-font-specification:Times-Roman;writing-mode:lr-tb;fill:#000000;fill-opacity:1;fill-rule:nonzero;stroke:none"
           transform="matrix(1,0,0,-1,65,86)"><tspan
             id="tspan48"
             y="0"
             x="0 15.56 24.440001 30 40 45 55">main.ol</tspan><tspan
             id="tspan50"
             y="-56"
             x="1 6.5599999 12.12 146 154.88 164.88 312 317.56 327.56 336.44 342 352 362">libextinclude</tspan><tspan
             id="tspan52"
             y="42"
             x="396 403.78 413.78 419.34 424.89999 433.78 438.78 448.78 455.44 465.44 475.44 482.10001 490.98001">Jolie program</tspan></text>
</g></g></g></svg>